<svg id="visual" viewBox="0 0 1111 111" width="1111" height="111" xmlns="http://www.w3.org/2000/svg" xmlns:xlink="http://www.w3.org/1999/xlink" version="1.1"><rect x="0" y="0" width="1111" height="111" fill="#eacb48"></rect><path d="M0 48L30.8 52.8C61.7 57.7 123.3 67.3 185 68.7C246.7 70 308.3 63 370.2 58C432 53 494 50 555.8 51.8C617.7 53.7 679.3 60.3 741 60.5C802.7 60.7 864.3 54.3 926 51.3C987.7 48.3 1049.3 48.7 1080.2 48.8L1111 49L1111 112L1080.2 112C1049.3 112 987.7 112 926 112C864.3 112 802.7 112 741 112C679.3 112 617.7 112 555.8 112C494 112 432 112 370.2 112C308.3 112 246.7 112 185 112C123.3 112 61.7 112 30.8 112L0 112Z" fill="#cfba5c"></path><path d="M0 80L30.8 76.5C61.7 73 123.3 66 185 63C246.7 60 308.3 61 370.2 59.3C432 57.7 494 53.3 555.8 54.8C617.7 56.3 679.3 63.7 741 68.8C802.7 74 864.3 77 926 77.8C987.7 78.7 1049.3 77.3 1080.2 76.7L1111 76L1111 112L1080.2 112C1049.3 112 987.7 112 926 112C864.3 112 802.7 112 741 112C679.3 112 617.7 112 555.8 112C494 112 432 112 370.2 112C308.3 112 246.7 112 185 112C123.3 112 61.7 112 30.8 112L0 112Z" fill="#c8b253"></path><path d="M0 69L30.8 71C61.7 73 123.3 77 185 79.2C246.7 81.3 308.3 81.7 370.2 81.7C432 81.7 494 81.3 555.8 79C617.7 76.7 679.3 72.3 741 73.3C802.7 74.3 864.3 80.7 926 81.7C987.7 82.7 1049.3 78.3 1080.2 76.2L1111 74L1111 112L1080.2 112C1049.3 112 987.7 112 926 112C864.3 112 802.7 112 741 112C679.3 112 617.7 112 555.8 112C494 112 432 112 370.2 112C308.3 112 246.7 112 185 112C123.3 112 61.7 112 30.8 112L0 112Z" fill="#c1aa49"></path><path d="M0 75L30.8 75.3C61.7 75.7 123.3 76.3 185 75.8C246.7 75.3 308.3 73.7 370.2 74.8C432 76 494 80 555.8 79.7C617.7 79.3 679.3 74.7 741 72C802.7 69.3 864.3 68.7 926 69.7C987.7 70.7 1049.3 73.3 1080.2 74.7L1111 76L1111 112L1080.2 112C1049.3 112 987.7 112 926 112C864.3 112 802.7 112 741 112C679.3 112 617.7 112 555.8 112C494 112 432 112 370.2 112C308.3 112 246.7 112 185 112C123.3 112 61.7 112 30.8 112L0 112Z" fill="#baa340"></path><path d="M0 73L30.8 76.2C61.7 79.3 123.3 85.7 185 85.8C246.7 86 308.3 80 370.2 78.7C432 77.3 494 80.7 555.8 81.3C617.7 82 679.3 80 741 78.5C802.7 77 864.3 76 926 75.5C987.7 75 1049.3 75 1080.2 75L1111 75L1111 112L1080.2 112C1049.3 112 987.7 112 926 112C864.3 112 802.7 112 741 112C679.3 112 617.7 112 555.8 112C494 112 432 112 370.2 112C308.3 112 246.7 112 185 112C123.3 112 61.7 112 30.8 112L0 112Z" fill="#b39b36"></path><path d="M0 83L30.8 83.8C61.7 84.7 123.3 86.3 185 85.5C246.7 84.7 308.3 81.3 370.2 82.7C432 84 494 90 555.8 92C617.7 94 679.3 92 741 88.8C802.7 85.7 864.3 81.3 926 82.3C987.7 83.3 1049.3 89.7 1080.2 92.8L1111 96L1111 112L1080.2 112C1049.3 112 987.7 112 926 112C864.3 112 802.7 112 741 112C679.3 112 617.7 112 555.8 112C494 112 432 112 370.2 112C308.3 112 246.7 112 185 112C123.3 112 61.7 112 30.8 112L0 112Z" fill="#ac932c"></path><path d="M0 85L30.8 85.7C61.7 86.3 123.3 87.7 185 89.3C246.7 91 308.3 93 370.2 93.5C432 94 494 93 555.8 93.8C617.7 94.7 679.3 97.3 741 97.2C802.7 97 864.3 94 926 92.8C987.7 91.7 1049.3 92.3 1080.2 92.7L1111 93L1111 112L1080.2 112C1049.3 112 987.7 112 926 112C864.3 112 802.7 112 741 112C679.3 112 617.7 112 555.8 112C494 112 432 112 370.2 112C308.3 112 246.7 112 185 112C123.3 112 61.7 112 30.8 112L0 112Z" fill="#a58c21"></path><path d="M0 97L30.8 96.8C61.7 96.7 123.3 96.3 185 97.2C246.7 98 308.3 100 370.2 100.2C432 100.3 494 98.7 555.8 98.2C617.7 97.7 679.3 98.3 741 97.2C802.7 96 864.3 93 926 91.7C987.7 90.3 1049.3 90.7 1080.2 90.8L1111 91L1111 112L1080.2 112C1049.3 112 987.7 112 926 112C864.3 112 802.7 112 741 112C679.3 112 617.7 112 555.8 112C494 112 432 112 370.2 112C308.3 112 246.7 112 185 112C123.3 112 61.7 112 30.8 112L0 112Z" fill="#9f8414"></path><path d="M0 102L30.8 102.2C61.7 102.3 123.3 102.7 185 102.8C246.7 103 308.3 103 370.2 103.3C432 103.7 494 104.3 555.8 103.7C617.7 103 679.3 101 741 101.2C802.7 101.3 864.3 103.7 926 104.7C987.7 105.7 1049.3 105.3 1080.2 105.2L1111 105L1111 112L1080.2 112C1049.3 112 987.7 112 926 112C864.3 112 802.7 112 741 112C679.3 112 617.7 112 555.8 112C494 112 432 112 370.2 112C308.3 112 246.7 112 185 112C123.3 112 61.7 112 30.8 112L0 112Z" fill="#987d02"></path></svg>